<svg id="Layer_1" data-name="Layer 1" xmlns="http://www.w3.org/2000/svg" viewBox="0 0 43.85 62.17"><defs><style>.cls-1{fill:#231f20;}.cls-2{fill:#fff;}</style></defs><title>B</title><path class="cls-1" d="M24.15,11.91l-1.8,1.75V70.59S22.56,73,26.53,73H50.47a19.08,19.08,0,0,0,8.09-3.63c7-5.4,7.54-13.91,7.61-15.4a18.11,18.11,0,0,0-.52-5.26,19.49,19.49,0,0,0-7.09-10.44c.29-.25,7-6.25,5.3-15.07A16.07,16.07,0,0,0,52.54,10.8H25.42Z" transform="translate(-22.35 -10.8)"/><path class="cls-2" d="M30.11,19.42V65.74H49.24a14.25,14.25,0,0,0,2.12-26.35c5.2-4.63,7-11,4.77-15.53a10.12,10.12,0,0,0-4.63-4.44Z" transform="translate(-22.35 -10.8)"/></svg>