<svg id="Layer_1" data-name="Layer 1" xmlns="http://www.w3.org/2000/svg" viewBox="0 0 407.23 134.5"><title>compatibility</title><path d="M57.76,205.28V305.62L188,321.07V189.83ZM180.4,251.63H118.9V205.72l61.5-7.29Zm-69.14-45v45H65.39V212.06ZM65.39,259.27h45.87v45l-45.87-5.44Zm53.51,45.91V259.27h61.5v53.21Z" transform="translate(-57.76 -186.57)"/><path d="M262.57,213.82a4.29,4.29,0,0,0-5.69,2.12,4.32,4.32,0,0,0,3.9,6.1,4.16,4.16,0,0,0,1.51-.28,4.3,4.3,0,0,0,.28-7.94Z" transform="translate(-57.76 -186.57)"/><path d="M282.72,213.82a4.3,4.3,0,0,0-3.57,7.82,4.31,4.31,0,0,0,1.78.4,4.07,4.07,0,0,0,1.5-.28,4.3,4.3,0,0,0,.29-7.94Z" transform="translate(-57.76 -186.57)"/><path d="M219.1,239.88H219a10.92,10.92,0,0,0-10.89,10.92V277A10.91,10.91,0,0,0,219,287.93h.13A10.91,10.91,0,0,0,230,277V250.8A10.92,10.92,0,0,0,219.1,239.88ZM222.61,277a3.51,3.51,0,0,1-3.51,3.51H219a3.51,3.51,0,0,1-3.51-3.51V250.8a3.52,3.52,0,0,1,3.51-3.52h.13a3.52,3.52,0,0,1,3.51,3.52Z" transform="translate(-57.76 -186.57)"/><path d="M323.19,239.88h-.13a10.92,10.92,0,0,0-10.89,10.92V277a10.91,10.91,0,0,0,10.89,10.91h.13A10.91,10.91,0,0,0,334.08,277V250.8A10.91,10.91,0,0,0,323.19,239.88ZM326.7,277a3.51,3.51,0,0,1-3.51,3.51h-.13a3.51,3.51,0,0,1-3.5-3.51V250.8a3.51,3.51,0,0,1,3.5-3.52h.13a3.52,3.52,0,0,1,3.51,3.52Z" transform="translate(-57.76 -186.57)"/><path d="M235.09,293.22h11.74v14.31a11,11,0,0,0,21.91,0V293.22h4.48v14.31a11,11,0,0,0,21.91,0V293.22h11.5V241.33H235.09Zm7.39-44.49h56.76v37.09h-11.5v21.71a3.57,3.57,0,0,1-7.14,0V285.82H261.36v21.71a3.57,3.57,0,0,1-7.14,0V285.82H242.47V248.73Z" transform="translate(-57.76 -186.57)"/><path d="M305.37,196.83l-5.95-4.38L291.67,203a35.81,35.81,0,0,0-39.43-1.45l-6.68-9.11-5.95,4.38,6.75,9.2a35.38,35.38,0,0,0-11.27,25.89v3.7h71.53v-3.7a35.36,35.36,0,0,0-9.38-24Zm-62.65,31.38a28.42,28.42,0,0,1,56.28,0Z" transform="translate(-57.76 -186.57)"/><path d="M413.78,218.85h-.33l-3-.08-.45-3c-.08-.53-1.93-13.29,5.2-21.38h0c7.14-8.09,20-7.85,20.57-7.84l3,.08.45,3c.09.54,1.94,13.29-5.2,21.38C427.42,218.49,415.9,218.85,413.78,218.85Zm6.81-19.69c-3.13,3.55-3.69,8.88-3.69,12.29,3.38-.42,8.6-1.65,11.73-5.2s3.68-8.87,3.68-12.28C428.93,194.39,423.72,195.61,420.59,199.16Z" transform="translate(-57.76 -186.57)"/><path d="M428.51,308.59a33,33,0,0,1-8-1,33.7,33.7,0,0,1-9.9-4.25,33.93,33.93,0,0,1-9.9,4.25,32.2,32.2,0,0,1-7.68,1,29.08,29.08,0,0,1-19.58-7.73c-7-6.21-12.32-15.73-15.33-27.54a65.59,65.59,0,0,1-2.09-20.58A39.58,39.58,0,0,1,361.23,235,28.13,28.13,0,0,1,379,221.9a34.48,34.48,0,0,1,18.21.51,40.26,40.26,0,0,1,13.48,7.17,40.12,40.12,0,0,1,13.47-7.17,34.48,34.48,0,0,1,18.21-.51,28.8,28.8,0,0,1,11.5,5.74l3.36,2.77-3.37,2.77a20.23,20.23,0,0,0,7.76,35.23l3.41.88-.81,3.42c-.1.44-.2.87-.32,1.3-3,11.72-8.43,21.14-15.77,27.25A30.11,30.11,0,0,1,428.51,308.59Zm-17.86-14.1,2.15,1.61a26.59,26.59,0,0,0,9.48,4.52,23.22,23.22,0,0,0,21.21-4.88c5.68-4.72,10.2-12.31,12.87-21.5a27.42,27.42,0,0,1-10.47-43.33,22.5,22.5,0,0,0-5.3-2c-9.43-2.35-19.45.6-27.5,8.08l-2.44,2.27L408.2,237c-8.05-7.48-18.07-10.43-27.5-8.08a20.83,20.83,0,0,0-13.31,9.77c-4.74,7.94-5.57,19.92-2.27,32.88,2.62,10.26,7.28,18.76,13.13,23.93A21.85,21.85,0,0,0,399,300.62a26.64,26.64,0,0,0,9.49-4.52Z" transform="translate(-57.76 -186.57)"/></svg>