<svg id="Layer_1" data-name="Layer 1" xmlns="http://www.w3.org/2000/svg" viewBox="0 0 352.22 223.8"><title>connections</title><path d="M252.59,188.63l-107.42-62v99.7L69.42,182.54l-7,12.19,75.76,43.76L62.38,282.24l7,12.19,75.75-43.75v99.7l107.42-62-86.31-49.85ZM159.25,151l65.2,37.66-65.2,37.66Zm65.2,137.37L159.25,326V250.68Z" transform="translate(-62.38 -126.59)"/><path d="M414.59,167.64H383.76v30.83h8.81v30.22l-39.64,6.61V163.22l15.6.07L346.3,133.75,324.21,163.1l15.51.07v89.75l-39.64-6.61V214.6a15.42,15.42,0,1,0-13.21,0v42.9l52.85,8.81v24.55a28.63,28.63,0,1,0,13.21,0V248.7l52.85-8.81V198.47h8.81V167.64ZM361.74,318.71a15.42,15.42,0,1,1-15.41-15.42A15.42,15.42,0,0,1,361.74,318.71Z" transform="translate(-62.38 -126.59)"/></svg>