<svg id="Layer_1" data-name="Layer 1" xmlns="http://www.w3.org/2000/svg" viewBox="0 0 374.68 264.51"><defs><style>.cls-1{fill:none;stroke-width:5px;}.cls-1,.cls-2{stroke:#000;stroke-miterlimit:10;}</style></defs><title>hands</title><path class="cls-1" d="M395.06,542.92l-58.22-105s-8-41.09,13.7-37.67,24,14.84,24,14.84L481.82,608s4.57,13.7,0,20.55c0,0,18.27,26.25-6.85,30.82,0,0-13.7-10.27-17.12-19.41,0,0-2.28,16-29.68-24,0,0-19.41,20.55-46.81-44.52C381.36,571.47,377.94,546.35,395.06,542.92Z" transform="translate(-332.9 -397.52)"/><path class="cls-1" d="M557.17,633.11s-10.27,26.26,3.43,26.26,20.54-13.13,20.54-13.13,14.85,5.14,33.11-31.39c0,0,28.54,18.26,46.81-40,0,0,1.14-28.54-13.7-35.39l54.8-102.75s13.7-34.65-18.27-36.73c0,0-10.27.2-21.69,21.89s-99.32,181.52-99.32,181.52S553.75,606.86,557.17,633.11Z" transform="translate(-332.9 -397.52)"/><polygon class="cls-2" points="104.4 43.8 161.48 2.5 161.48 28.96 184.78 30.1 176.32 57.5 162.63 57.5 162.63 81.48 104.4 43.8"/><polygon class="cls-2" points="199.16 28.96 192.31 55.22 209.43 55.22 209.43 81.48 271.08 41.99 214 2.5 214 27.82 199.16 28.96"/></svg>