<svg id="Layer_1" data-name="Layer 1" xmlns="http://www.w3.org/2000/svg" viewBox="0 0 593.97 388.85"><defs><style>.cls-1,.cls-2{fill:none;}.cls-1,.cls-3{stroke:#000;stroke-miterlimit:10;stroke-width:5px;}.cls-3{fill:#fff;}</style></defs><title>size</title><path class="cls-1" d="M259.11,363.22s10.25-19.85,25-20.49,212,0,212,0,20.5,12.17,21.14,20.49,0,317.07,0,317.07-1.92,25-23.06,23.7-211.38,0-211.38,0-21.78-5.81-23.7-19.26S259.11,363.22,259.11,363.22Z" transform="translate(-255.75 -325.33)"/><path class="cls-1" d="M550.09,349.89s11.27-21.08,27.48-21.76,233.18,0,233.18,0S833.3,341.05,834,349.89s0,336.58,0,336.58-2.11,26.52-25.36,25.16-232.48,0-232.48,0-24-6.17-26.07-20.45S550.09,349.89,550.09,349.89Z" transform="translate(-255.75 -325.33)"/><rect class="cls-1" x="22.57" y="53.27" width="218.43" height="292.73"/><rect class="cls-1" x="338.68" y="60.64" width="200.49" height="285.36"/><path class="cls-1" d="M315.48,470.19s22.41,25.63,17.29-15.37-8.27,11.64-8.27,11.64-.7,21.47,17.88,11.64,9-26.48,9-26.48-17.94,21.61,7.68,29.06,8.33-41.48,8.33-41.48-8.33,18.18-7.05,25.87,10.25,22.42,23.7,7.69,7.05-25,7.05-25-21.93,10.89,1.52,25.63,17.7-18.58,17.7-18.58-23.06,24.34,9.6,17.3,0-22.42,0-22.42-2.56,27.54,10.25,26.9,30.75-9,18.58-29.47S441,463.79,441,463.79s1.92,22.42,17.94,6.4" transform="translate(-255.75 -325.33)"/><path class="cls-1" d="M320,536.17s23.64,15.9,14.09-26.9S328.14,525,328.14,525s4.63,24,16.8,9.29,12.81-24.34,12.81-24.34-26.9-10.88,3.84,29.15c0,0,22.81,1.79,16.66-29.15,0,0-21,15.77,6.15,30.94s6.66-33.51,6.66-33.51" transform="translate(-255.75 -325.33)"/><path class="cls-1" d="M617.81,469.55s3.85,8.33,9.61,5.13,0-27.55,0-27.55-9,26.91,9,23.06,5.76-23.06,5.76-23.06-9.6,26.91,9.61,23.7,15.37-20.49,15.37-20.49-23.06,9,7.69,19.85,9.61-23.06,9.61-23.06l-5.13,14.14s1.29,16.61,19.86,7S709.41,451,709.41,451s-21.26,9.61,1.86,19.21,25-13.45,25-13.45-3.2-7.68-7.68-5.76-7,10.29-7,10.29.64,17.25,19.22,7,14.73-21.14,14.73-21.14a8,8,0,0,0-9,3.21c-3.84,5.12-1.92,27.54,23.06,19.85" transform="translate(-255.75 -325.33)"/><path class="cls-1" d="M621.66,543.78s29.46-5,12.81-35.15c0,0-13.45,33.16,10.25,35.15s14.09-31.31,14.09-31.31-14.09,31.39,9.61,33.31,16-27.09,16-27.09-13.45,20.68,9.29,22,2.88-32,2.88-32-4.48,31.57,17.29,37.24" transform="translate(-255.75 -325.33)"/><circle class="cls-1" cx="132.14" cy="357.07" r="6.57"/><circle class="cls-1" cx="312.22" cy="282.65" r="10.34"/><line class="cls-1" x1="296.31" y1="60.64" x2="575.65" y2="60.64"/><path class="cls-2" d="M845.37,688.14" transform="translate(-255.75 -325.33)"/><path class="cls-3" d="M845.37,688.14s10.56,25.94-18.74,15.37L713.89,563.71V545.87l17.62,6.79Z" transform="translate(-255.75 -325.33)"/></svg>